<?xml version="1.0" encoding="utf-8"?>
<!-- Generator: Adobe Illustrator 17.1.0, SVG Export Plug-In . SVG Version: 6.00 Build 0)  -->
<!DOCTYPE svg PUBLIC "-//W3C//DTD SVG 1.1//EN" "http://www.w3.org/Graphics/SVG/1.1/DTD/svg11.dtd">
<svg version="1.1" id="Layer_1" xmlns="http://www.w3.org/2000/svg" xmlns:xlink="http://www.w3.org/1999/xlink" x="0px" y="0px"
	 viewBox="0 0 600 337" enable-background="new 0 0 600 337" xml:space="preserve">
<g>
	<path fill="#FFFFFF" d="M166.8,216.8l-59.2-37.7c-1.7-1.1-3.9,0.3-3.9,2.6v75.5c0,2.3,2.1,3.7,3.9,2.6l59.2-37.7
		C168.6,220.8,168.6,218,166.8,216.8z"/>
	<path fill="#FFFFFF" d="M195.3,189.5c-3.7-8.9-9.1-16.8-15.9-23.7c-6.8-6.8-14.8-12.2-23.7-15.9c-9.2-3.9-18.9-5.8-29-5.8
		c-10,0-19.8,2-29,5.8C89,153.6,81,159,74.2,165.8c-6.8,6.8-12.2,14.8-15.9,23.7c-3.9,9.2-5.8,18.9-5.8,29c0,10,2,19.8,5.8,29
		c3.7,8.9,9.1,16.8,15.9,23.7C81,277.9,89,283.3,97.8,287c9.2,3.9,18.9,5.8,29,5.8c10,0,19.8-2,29-5.8c8.9-3.7,16.8-9.1,23.7-15.9
		c6.8-6.8,12.2-14.8,15.9-23.7c3.9-9.2,5.8-18.9,5.8-29C201.2,208.4,199.2,198.7,195.3,189.5z M126.8,283.9
		c-36.1,0-65.5-29.4-65.5-65.5S90.7,153,126.8,153s65.5,29.4,65.5,65.5S162.9,283.9,126.8,283.9z"/>
</g>
</svg>
