<?xml version="1.0" encoding="UTF-8"?>
<svg xmlns="http://www.w3.org/2000/svg" xmlns:xlink="http://www.w3.org/1999/xlink" width="40pt" height="40pt" viewBox="0 0 40 40" version="1.1">
<g id="surface1">
<path style="fill-rule:nonzero;fill:rgb(67.843137%,0%,0%);fill-opacity:1;stroke-width:1;stroke-linecap:butt;stroke-linejoin:miter;stroke:rgb(67.843137%,0%,0%);stroke-opacity:1;stroke-miterlimit:4;" d="M 36.068311 23.013127 C 32.971071 23.013127 30.447919 20.489976 30.447919 17.392736 C 30.447919 14.295497 32.971071 11.779433 36.068311 11.779433 C 39.16555 11.779433 41.688702 14.295497 41.688702 17.392736 C 41.688702 20.489976 39.16555 23.013127 36.068311 23.013127 Z M 36.068311 14.593172 C 34.523235 14.593172 33.261659 15.854748 33.261659 17.399824 C 33.261659 18.937812 34.523235 20.199388 36.068311 20.199388 C 37.620474 20.199388 38.874962 18.937812 38.874962 17.399824 C 38.874962 15.854748 37.620474 14.593172 36.068311 14.593172 Z M 36.068311 14.593172 " transform="matrix(0.551146,0,0,0.551146,0,0)"/>
<path style="fill-rule:nonzero;fill:rgb(67.843137%,0%,0%);fill-opacity:1;stroke-width:1;stroke-linecap:butt;stroke-linejoin:miter;stroke:rgb(67.843137%,0%,0%);stroke-opacity:1;stroke-miterlimit:4;" d="M 36.068311 55.566036 C 35.976173 55.566036 35.884035 55.551861 35.791898 55.537686 C 35.69976 55.516423 35.61471 55.488073 35.52966 55.459723 C 35.44461 55.424285 35.366648 55.374673 35.288685 55.32506 C 35.210723 55.275448 35.139847 55.21166 35.068972 55.15496 C 35.012272 55.084085 34.948485 55.020298 34.898872 54.942335 C 34.84926 54.857285 34.806735 54.779323 34.771297 54.694273 C 34.73586 54.609222 34.70751 54.524172 34.686247 54.432035 C 34.672072 54.339897 34.657897 54.24776 34.657897 54.155622 C 34.657897 54.070572 34.672072 53.971347 34.686247 53.879209 C 34.70751 53.794159 34.73586 53.702022 34.771297 53.616972 C 34.806735 53.531922 34.84926 53.453959 34.898872 53.375997 C 34.948485 53.305122 35.012272 53.227159 35.068972 53.163372 C 35.139847 53.099584 35.210723 53.035796 35.288685 52.986184 C 35.366648 52.936571 35.44461 52.894046 35.52966 52.858609 C 35.61471 52.823171 35.69976 52.794821 35.791898 52.780646 C 35.976173 52.738121 36.160448 52.738121 36.344723 52.780646 C 36.429773 52.794821 36.514823 52.823171 36.606961 52.858609 C 36.692011 52.894046 36.777061 52.936571 36.847936 52.986184 C 36.925899 53.035796 36.996774 53.099584 37.060561 53.163372 C 37.124349 53.227159 37.188136 53.305122 37.237749 53.375997 C 37.280274 53.453959 37.329886 53.531922 37.365324 53.616972 C 37.400761 53.702022 37.429111 53.794159 37.443286 53.879209 C 37.464549 53.971347 37.471636 54.070572 37.471636 54.155622 C 37.471636 54.24776 37.464549 54.339897 37.443286 54.432035 C 37.429111 54.524172 37.400761 54.609222 37.365324 54.694273 C 37.329886 54.779323 37.280274 54.857285 37.237749 54.942335 C 37.188136 55.020298 37.124349 55.084085 37.060561 55.15496 C 36.996774 55.21166 36.925899 55.275448 36.847936 55.32506 C 36.777061 55.374673 36.692011 55.424285 36.606961 55.459723 C 36.514823 55.488073 36.429773 55.516423 36.344723 55.537686 C 36.252586 55.551861 36.160448 55.566036 36.068311 55.566036 Z M 36.068311 55.566036 " transform="matrix(0.551146,0,0,0.551146,0,0)"/>
<path style="fill-rule:nonzero;fill:rgb(67.843137%,0%,0%);fill-opacity:1;stroke-width:1;stroke-linecap:butt;stroke-linejoin:miter;stroke:rgb(67.843137%,0%,0%);stroke-opacity:1;stroke-miterlimit:4;" d="M 28.179918 36.614048 L 18.335374 36.614048 C 17.555749 36.614048 16.924961 35.983261 16.924961 35.203635 C 16.924961 34.431097 17.555749 33.800309 18.335374 33.800309 L 28.179918 33.800309 C 28.959544 33.800309 29.590331 34.431097 29.590331 35.203635 C 29.590331 35.983261 28.959544 36.614048 28.179918 36.614048 Z M 28.179918 36.614048 " transform="matrix(0.551146,0,0,0.551146,0,0)"/>
<path style="fill-rule:nonzero;fill:rgb(67.843137%,0%,0%);fill-opacity:1;stroke-width:1;stroke-linecap:butt;stroke-linejoin:miter;stroke:rgb(67.843137%,0%,0%);stroke-opacity:1;stroke-miterlimit:4;" d="M 28.179918 44.863904 L 18.335374 44.863904 C 17.555749 44.863904 16.924961 44.240203 16.924961 43.460578 C 16.924961 42.680952 17.555749 42.050164 18.335374 42.050164 L 28.179918 42.050164 C 28.959544 42.050164 29.590331 42.680952 29.590331 43.460578 C 29.590331 44.240203 28.959544 44.863904 28.179918 44.863904 Z M 28.179918 44.863904 " transform="matrix(0.551146,0,0,0.551146,0,0)"/>
<path style="fill-rule:nonzero;fill:rgb(67.843137%,0%,0%);fill-opacity:1;stroke-width:1;stroke-linecap:butt;stroke-linejoin:miter;stroke:rgb(67.843137%,0%,0%);stroke-opacity:1;stroke-miterlimit:4;" d="M 28.179918 53.120846 L 18.335374 53.120846 C 17.555749 53.120846 16.924961 52.490059 16.924961 51.717521 C 16.924961 50.937895 17.555749 50.307107 18.335374 50.307107 L 28.179918 50.307107 C 28.959544 50.307107 29.590331 50.937895 29.590331 51.717521 C 29.590331 52.490059 28.959544 53.120846 28.179918 53.120846 Z M 28.179918 53.120846 " transform="matrix(0.551146,0,0,0.551146,0,0)"/>
<path style="fill-rule:nonzero;fill:rgb(67.843137%,0%,0%);fill-opacity:1;stroke-width:1;stroke-linecap:butt;stroke-linejoin:miter;stroke:rgb(67.843137%,0%,0%);stroke-opacity:1;stroke-miterlimit:4;" d="M 53.801247 36.614048 L 43.956703 36.614048 C 43.177078 36.614048 42.553377 35.983261 42.553377 35.203635 C 42.553377 34.431097 43.177078 33.800309 43.956703 33.800309 L 53.801247 33.800309 C 54.580872 33.800309 55.21166 34.431097 55.21166 35.203635 C 55.21166 35.983261 54.580872 36.614048 53.801247 36.614048 Z M 53.801247 36.614048 " transform="matrix(0.551146,0,0,0.551146,0,0)"/>
<path style="fill-rule:nonzero;fill:rgb(67.843137%,0%,0%);fill-opacity:1;stroke-width:1;stroke-linecap:butt;stroke-linejoin:miter;stroke:rgb(67.843137%,0%,0%);stroke-opacity:1;stroke-miterlimit:4;" d="M 53.801247 44.863904 L 43.956703 44.863904 C 43.177078 44.863904 42.553377 44.240203 42.553377 43.460578 C 42.553377 42.680952 43.177078 42.050164 43.956703 42.050164 L 53.801247 42.050164 C 54.580872 42.050164 55.21166 42.680952 55.21166 43.460578 C 55.21166 44.240203 54.580872 44.863904 53.801247 44.863904 Z M 53.801247 44.863904 " transform="matrix(0.551146,0,0,0.551146,0,0)"/>
<path style="fill-rule:nonzero;fill:rgb(67.843137%,0%,0%);fill-opacity:1;stroke-width:1;stroke-linecap:butt;stroke-linejoin:miter;stroke:rgb(67.843137%,0%,0%);stroke-opacity:1;stroke-miterlimit:4;" d="M 53.801247 53.120846 L 43.956703 53.120846 C 43.177078 53.120846 42.553377 52.490059 42.553377 51.717521 C 42.553377 50.937895 43.177078 50.307107 43.956703 50.307107 L 53.801247 50.307107 C 54.580872 50.307107 55.21166 50.937895 55.21166 51.717521 C 55.21166 52.490059 54.580872 53.120846 53.801247 53.120846 Z M 53.801247 53.120846 " transform="matrix(0.551146,0,0,0.551146,0,0)"/>
<path style="fill-rule:nonzero;fill:rgb(67.843137%,0%,0%);fill-opacity:1;stroke-width:1;stroke-linecap:butt;stroke-linejoin:miter;stroke:rgb(67.843137%,0%,0%);stroke-opacity:1;stroke-miterlimit:4;" d="M 67.919556 27.49243 L 62.48344 27.49243 L 62.48344 4.330465 C 62.48344 1.941976 60.541464 0 58.152975 0 L 13.983646 0 C 11.595157 0 9.653181 1.941976 9.653181 4.330465 L 9.653181 27.49243 L 4.217065 27.49243 C 3.444527 27.49243 2.813739 28.11613 2.813739 28.895756 L 2.813739 61.491189 C 2.813739 64.808141 5.514079 67.508481 8.831031 67.508481 L 27.740493 67.508481 C 29.576156 70.29387 32.694658 72.001959 36.068311 72.001959 C 39.441963 72.001959 42.567552 70.29387 44.389041 67.508481 L 63.305591 67.508481 C 66.622543 67.508481 69.322882 64.808141 69.322882 61.491189 L 69.322882 28.895756 C 69.322882 28.11613 68.692094 27.49243 67.919556 27.49243 Z M 36.068311 61.306914 C 34.99101 59.839801 33.644384 58.0254 31.787458 58.0254 L 12.46692 58.0254 L 12.46692 27.031742 L 31.787458 27.031742 C 32.156008 27.031742 32.496208 27.23728 32.680483 27.54913 C 33.155346 28.350018 33.849922 28.938281 34.657897 29.243044 L 34.657897 47.025593 C 34.657897 47.805218 35.288685 48.428918 36.068311 48.428918 C 36.840849 48.428918 37.471636 47.805218 37.471636 47.025593 L 37.471636 29.243044 C 38.2867 28.938281 38.988362 28.350018 39.456138 27.54913 C 39.640413 27.23728 39.980613 27.031742 40.356251 27.031742 L 59.669701 27.031742 L 59.669701 58.0254 L 40.356251 58.0254 C 38.492237 58.0254 37.145611 59.839801 36.068311 61.306914 Z M 17.463611 21.631064 L 17.463611 13.154408 C 20.000938 12.544883 21.957089 10.524944 22.495739 7.973443 L 49.647969 7.973443 C 50.179532 10.524944 52.135683 12.544883 54.665922 13.154408 L 54.665922 21.631064 C 53.042884 21.992527 51.646646 22.913902 50.711095 24.218003 L 40.356251 24.218003 C 38.99545 24.218003 37.719699 24.955103 37.032211 26.131629 C 36.833761 26.464742 36.514823 26.67028 36.167536 26.67028 L 35.969086 26.67028 C 35.621798 26.67028 35.30286 26.464742 35.10441 26.131629 C 34.416922 24.955103 33.141171 24.218003 31.787458 24.218003 L 21.418439 24.218003 C 20.497063 22.913902 19.093737 21.992527 17.463611 21.631064 Z M 13.983646 2.813739 L 58.152975 2.813739 C 58.996388 2.813739 59.669701 3.49414 59.669701 4.330465 L 59.669701 24.218003 L 56.409449 24.218003 C 57.026061 24.076253 57.479662 23.51634 57.479662 22.857202 L 57.479662 11.935358 C 57.479662 11.184082 56.884311 10.560382 56.133036 10.532032 C 53.99261 10.454069 52.312871 8.710543 52.312871 6.563029 C 52.312871 5.783404 51.682083 5.159703 50.909545 5.159703 L 21.227076 5.159703 C 20.454538 5.159703 19.82375 5.783404 19.82375 6.563029 C 19.82375 8.710543 18.144012 10.454069 16.003585 10.532032 C 15.25231 10.560382 14.649872 11.184082 14.649872 11.935358 L 14.649872 22.857202 C 14.649872 23.51634 15.11056 24.076253 15.727173 24.218003 L 12.46692 24.218003 L 12.46692 4.330465 C 12.46692 3.49414 13.147321 2.813739 13.983646 2.813739 Z M 29.781694 65.438929 C 29.533631 64.978242 29.051681 64.694741 28.541381 64.694741 L 8.831031 64.694741 C 7.066242 64.694741 5.627479 63.255978 5.627479 61.491189 L 5.627479 30.299082 L 9.653181 30.299082 L 9.653181 59.435813 C 9.653181 60.208351 10.283969 60.839139 11.056507 60.839139 L 31.78037 60.839139 C 32.262321 60.874576 33.403409 62.433827 33.828659 63.015003 C 34.112159 63.404816 34.388572 63.773366 34.657897 64.099391 L 34.657897 69.046469 C 32.602521 68.635394 30.802295 67.324206 29.781694 65.438929 Z M 66.509143 61.491189 C 66.509143 63.255978 65.070379 64.694741 63.305591 64.694741 L 43.602328 64.694741 C 43.077853 64.694741 42.60299 64.978242 42.362015 65.438929 C 41.341414 67.324206 39.5341 68.635394 37.471636 69.046469 L 37.471636 64.099391 C 37.740962 63.773366 38.017374 63.404816 38.307962 63.015003 C 38.733212 62.433827 39.881388 60.874576 40.356251 60.839139 L 61.073027 60.839139 C 61.85974 60.839139 62.48344 60.208351 62.48344 59.435813 L 62.48344 30.299082 L 66.509143 30.299082 Z M 66.509143 61.491189 " transform="matrix(0.551146,0,0,0.551146,0,0)"/>
</g>
</svg>
