<svg width="72" height="72" viewBox="0 0 72 72" fill="none" xmlns="http://www.w3.org/2000/svg">
<path d="M35.64 8.64C33.0637 8.64 30.96 10.7437 30.96 13.32C30.96 15.7725 32.8725 17.7975 35.28 17.9831V20.52C35.28 20.6494 35.3475 20.7731 35.46 20.835C35.5725 20.9025 35.7075 20.9025 35.82 20.835C35.9325 20.7731 36 20.6494 36 20.52V17.9831C38.4075 17.7975 40.32 15.7725 40.32 13.32C40.32 10.7437 38.2162 8.64 35.64 8.64ZM35.64 10.08C37.44 10.08 38.88 11.52 38.88 13.32C38.88 15.12 37.44 16.56 35.64 16.56C33.84 16.56 32.4 15.12 32.4 13.32C32.4 11.52 33.84 10.08 35.64 10.08ZM15.3731 20.34C12.7969 20.34 10.6931 22.4437 10.6931 25.02C10.6931 27.5962 12.7969 29.7 15.3731 29.7C16.9706 29.7 18.3825 28.89 19.2319 27.6637L21.4312 28.935C21.6 29.0306 21.825 28.9744 21.9206 28.8C22.0219 28.6256 21.96 28.4062 21.7912 28.305L19.5862 27.0337C19.8844 26.4262 20.0531 25.74 20.0531 25.02C20.0531 22.4437 17.9494 20.34 15.3731 20.34ZM55.9069 20.34C53.3306 20.34 51.2269 22.4437 51.2269 25.02C51.2269 25.74 51.3956 26.4262 51.6937 27.0337L49.4887 28.305C49.32 28.4062 49.2581 28.6256 49.3594 28.8C49.455 28.9744 49.68 29.0306 49.8487 28.935L52.0481 27.6637C52.8975 28.89 54.3094 29.7 55.9069 29.7C58.4831 29.7 60.5869 27.5962 60.5869 25.02C60.5869 22.4437 58.4831 20.34 55.9069 20.34ZM35.6344 21.5944C35.4375 21.6 35.2744 21.7631 35.28 21.96V22.68C35.28 22.8094 35.3475 22.9331 35.46 22.995C35.5725 23.0625 35.7075 23.0625 35.82 22.995C35.9325 22.9331 36 22.8094 36 22.68V21.96C36 21.8644 35.9662 21.7687 35.8931 21.7012C35.8256 21.6281 35.73 21.5944 35.6344 21.5944ZM15.3731 21.78C17.1731 21.78 18.6131 23.22 18.6131 25.02C18.6131 26.82 17.1731 28.26 15.3731 28.26C13.5787 28.26 12.1331 26.82 12.1331 25.02C12.1331 23.22 13.5787 21.78 15.3731 21.78ZM55.9069 21.78C57.7012 21.78 59.1469 23.22 59.1469 25.02C59.1469 26.82 57.7012 28.26 55.9069 28.26C54.1069 28.26 52.6669 26.82 52.6669 25.02C52.6669 23.22 54.1069 21.78 55.9069 21.78ZM35.64 25.2C32.2706 25.2 29.52 27.9506 29.52 31.32C29.52 33.1425 30.33 34.7794 31.6012 35.8987C27.8944 37.845 25.3575 42.3056 25.2 47.4975C25.1887 47.8969 25.5037 48.2287 25.8975 48.24C26.2969 48.2512 26.6287 47.9362 26.64 47.5425C26.7919 42.4294 29.4975 38.2331 33.0075 36.8325C33.8062 37.2206 34.695 37.44 35.64 37.44C36.585 37.44 37.4737 37.2206 38.2725 36.8325C41.7825 38.2331 44.4881 42.4294 44.64 47.5425C44.6512 47.9362 44.9831 48.2512 45.3825 48.24C45.7762 48.2287 46.0912 47.8969 46.08 47.4975C45.9225 42.3056 43.3856 37.8394 39.6787 35.8987C40.95 34.7794 41.76 33.1425 41.76 31.32C41.76 27.9506 39.0094 25.2 35.64 25.2ZM35.64 26.64C38.2331 26.64 40.32 28.7269 40.32 31.32C40.32 33.0525 39.3862 34.5544 37.9969 35.3644H37.9912C37.9237 35.3925 37.8562 35.4262 37.7944 35.4769C37.1531 35.8087 36.4219 36 35.64 36C34.8581 36 34.1212 35.8087 33.48 35.4712C33.4237 35.4262 33.3619 35.3925 33.2944 35.37C31.8994 34.56 30.96 33.0581 30.96 31.32C30.96 28.7269 33.0469 26.64 35.64 26.64ZM22.8262 28.98C22.6687 28.9856 22.5337 29.1037 22.5 29.2556C22.4662 29.4131 22.5394 29.5762 22.68 29.655L23.2987 30.015C23.4731 30.1106 23.6925 30.0544 23.7937 29.88C23.895 29.7056 23.8331 29.4862 23.6587 29.385L23.04 29.025C22.9837 28.9969 22.9275 28.98 22.8656 28.98C22.8544 28.9744 22.8431 28.9744 22.8262 28.98ZM48.4031 28.98C48.3469 28.98 48.2906 28.9969 48.24 29.025L47.6212 29.385C47.4469 29.4862 47.385 29.7056 47.4862 29.88C47.5875 30.0544 47.8069 30.1106 47.9812 30.015L48.6 29.655C48.7462 29.5762 48.8194 29.4075 48.78 29.25C48.7406 29.0925 48.6 28.98 48.4425 28.98C48.4256 28.9744 48.4144 28.9744 48.4031 28.98ZM23.4619 43.38C23.4056 43.38 23.3494 43.3969 23.2987 43.425L22.68 43.785C22.5056 43.8862 22.4437 44.1056 22.545 44.28C22.6462 44.4544 22.8656 44.5106 23.04 44.415L23.6587 44.055C23.805 43.9762 23.8781 43.8075 23.8387 43.65C23.7994 43.4925 23.6587 43.38 23.4956 43.38C23.4844 43.3744 23.4731 43.3744 23.4619 43.38ZM47.7731 43.38C47.61 43.3856 47.475 43.4981 47.4412 43.6556C47.4075 43.8131 47.475 43.9762 47.6212 44.055L48.24 44.415C48.4144 44.5106 48.6337 44.4544 48.735 44.28C48.8362 44.1056 48.7744 43.8862 48.6 43.785L47.9812 43.425C47.925 43.3969 47.8687 43.38 47.8069 43.38C47.7956 43.3744 47.7844 43.3744 47.7731 43.38ZM15.3731 43.74C12.7969 43.74 10.6931 45.8437 10.6931 48.42C10.6931 50.9962 12.7969 53.1 15.3731 53.1C17.9494 53.1 20.0531 50.9962 20.0531 48.42C20.0531 47.7 19.8844 47.0137 19.5862 46.4062L21.7912 45.135C21.9319 45.0562 22.005 44.8875 21.9656 44.73C21.9262 44.5725 21.7912 44.46 21.6281 44.46C21.6169 44.4544 21.6 44.4544 21.5887 44.46C21.5325 44.46 21.4762 44.4769 21.4312 44.505L19.2319 45.7762C18.3825 44.55 16.9706 43.74 15.3731 43.74ZM55.9069 43.74C54.3094 43.74 52.8975 44.55 52.0481 45.7762L49.8487 44.505C49.7981 44.4769 49.7419 44.46 49.68 44.46C49.6687 44.4544 49.6519 44.4544 49.6406 44.46C49.4831 44.4656 49.3481 44.5837 49.3144 44.7356C49.275 44.8931 49.3481 45.0562 49.4887 45.135L51.6937 46.4062C51.3956 47.0137 51.2269 47.7 51.2269 48.42C51.2269 50.9962 53.3306 53.1 55.9069 53.1C58.4831 53.1 60.5869 50.9962 60.5869 48.42C60.5869 45.8437 58.4831 43.74 55.9069 43.74ZM15.3731 45.18C17.1731 45.18 18.6131 46.62 18.6131 48.42C18.6131 50.22 17.1731 51.66 15.3731 51.66C13.5787 51.66 12.1331 50.22 12.1331 48.42C12.1331 46.62 13.5787 45.18 15.3731 45.18ZM55.9069 45.18C57.7012 45.18 59.1469 46.62 59.1469 48.42C59.1469 50.22 57.7012 51.66 55.9069 51.66C54.1069 51.66 52.6669 50.22 52.6669 48.42C52.6669 46.62 54.1069 45.18 55.9069 45.18ZM35.6344 50.3944C35.4375 50.4 35.2744 50.5631 35.28 50.76V51.48C35.28 51.6094 35.3475 51.7331 35.46 51.795C35.5725 51.8625 35.7075 51.8625 35.82 51.795C35.9325 51.7331 36 51.6094 36 51.48V50.76C36 50.6644 35.9662 50.5687 35.8931 50.5012C35.8256 50.4281 35.73 50.3944 35.6344 50.3944ZM35.6344 52.5544C35.4375 52.56 35.2744 52.7231 35.28 52.92V55.4569C32.8725 55.6425 30.96 57.6675 30.96 60.12C30.96 62.6962 33.0637 64.8 35.64 64.8C38.2162 64.8 40.32 62.6962 40.32 60.12C40.32 57.6675 38.4075 55.6425 36 55.4569V52.92C36 52.8244 35.9662 52.7287 35.8931 52.6612C35.8256 52.5881 35.73 52.5544 35.6344 52.5544ZM35.64 56.88C37.44 56.88 38.88 58.32 38.88 60.12C38.88 61.92 37.44 63.36 35.64 63.36C33.84 63.36 32.4 61.92 32.4 60.12C32.4 58.32 33.84 56.88 35.64 56.88Z" fill="#AD0000"/>
</svg>
