<?xml version="1.0" encoding="UTF-8"?>
<svg xmlns="http://www.w3.org/2000/svg" xmlns:xlink="http://www.w3.org/1999/xlink" width="40pt" height="40pt" viewBox="0 0 40 40" version="1.1">
<g id="surface1">
<path style=" stroke:none;fill-rule:nonzero;fill:#AD0000;fill-opacity:1;" d="M 39.769531 7.335938 L 32.660156 0.230469 C 32.515625 0.0820312 32.316406 0 32.109375 0 L 8.90625 0 C 7.613281 0 6.5625 1.050781 6.5625 2.34375 L 6.5625 3.832031 C 2.726562 5.339844 0 9.078125 0 13.445312 C 0 13.875 0.351562 14.226562 0.78125 14.226562 L 10.320312 14.226562 C 10.75 14.226562 11.101562 13.875 11.101562 13.445312 L 11.101562 3.90625 C 11.101562 3.476562 10.75 3.125 10.320312 3.125 C 9.566406 3.125 8.832031 3.207031 8.125 3.359375 L 8.125 2.34375 C 8.125 1.914062 8.476562 1.5625 8.90625 1.5625 L 31.328125 1.5625 L 31.328125 6.328125 C 31.328125 7.621094 32.378906 8.671875 33.671875 8.671875 L 38.4375 8.671875 L 38.4375 37.65625 C 38.4375 38.085938 38.085938 38.4375 37.65625 38.4375 L 8.90625 38.4375 C 8.476562 38.4375 8.125 38.085938 8.125 37.65625 L 8.125 30.964844 C 8.125 30.53125 7.773438 30.183594 7.34375 30.183594 C 6.914062 30.183594 6.5625 30.53125 6.5625 30.964844 L 6.5625 37.65625 C 6.5625 38.949219 7.613281 40 8.90625 40 L 37.65625 40 C 38.949219 40 40 38.949219 40 37.65625 L 40 7.890625 C 40 7.683594 39.917969 7.484375 39.769531 7.335938 Z M 9.539062 4.722656 L 9.539062 12.664062 L 1.597656 12.664062 C 1.96875 8.457031 5.332031 5.09375 9.539062 4.722656 Z M 33.671875 7.109375 C 33.242188 7.109375 32.890625 6.757812 32.890625 6.328125 L 32.890625 2.667969 L 37.332031 7.109375 Z M 33.671875 7.109375 "/>
<path style=" stroke:none;fill-rule:nonzero;fill:#AD0000;fill-opacity:1;" d="M 7.894531 27.574219 C 7.75 27.425781 7.550781 27.34375 7.34375 27.34375 C 7.136719 27.34375 6.9375 27.425781 6.792969 27.574219 C 6.644531 27.71875 6.5625 27.917969 6.5625 28.125 C 6.5625 28.332031 6.644531 28.53125 6.792969 28.675781 C 6.9375 28.824219 7.136719 28.90625 7.34375 28.90625 C 7.550781 28.90625 7.75 28.824219 7.894531 28.675781 C 8.042969 28.53125 8.125 28.332031 8.125 28.125 C 8.125 27.917969 8.042969 27.71875 7.894531 27.574219 Z M 7.894531 27.574219 "/>
<path style=" stroke:none;fill-rule:nonzero;fill:#AD0000;fill-opacity:1;" d="M 13.117188 5.921875 C 12.6875 5.921875 12.335938 6.273438 12.335938 6.703125 L 12.335938 15.460938 L 3.578125 15.460938 C 3.148438 15.460938 2.796875 15.8125 2.796875 16.242188 C 2.796875 21.933594 7.425781 26.5625 13.117188 26.5625 C 18.808594 26.5625 23.4375 21.933594 23.4375 16.242188 C 23.4375 10.550781 18.808594 5.921875 13.117188 5.921875 Z M 13.898438 7.519531 C 15.726562 7.683594 17.398438 8.410156 18.730469 9.527344 L 13.898438 14.355469 Z M 13.117188 25 C 8.550781 25 4.792969 21.488281 4.394531 17.023438 L 13.117188 17.023438 C 13.332031 17.023438 13.527344 16.9375 13.671875 16.796875 L 19.835938 10.628906 C 21.109375 12.152344 21.875 14.109375 21.875 16.242188 C 21.875 21.070312 17.945312 25 13.117188 25 Z M 13.117188 25 "/>
<path style=" stroke:none;fill-rule:nonzero;fill:#AD0000;fill-opacity:1;" d="M 34.222656 24.65625 C 32.933594 24.65625 31.878906 25.707031 31.878906 27 C 31.878906 27.324219 31.945312 27.632812 32.066406 27.914062 L 27.566406 32.414062 C 27.253906 32.265625 26.910156 32.179688 26.542969 32.179688 C 26.183594 32.179688 25.84375 32.261719 25.542969 32.40625 L 22.550781 29.414062 C 22.65625 29.152344 22.714844 28.863281 22.714844 28.5625 C 22.714844 27.269531 21.660156 26.21875 20.371094 26.21875 C 19.078125 26.21875 18.027344 27.269531 18.027344 28.5625 C 18.027344 28.914062 18.105469 29.246094 18.242188 29.542969 L 15.375 32.410156 C 15.070312 32.265625 14.726562 32.183594 14.367188 32.183594 C 13.074219 32.183594 12.023438 33.234375 12.023438 34.527344 C 12.023438 35.820312 13.074219 36.871094 14.367188 36.871094 C 15.660156 36.871094 16.710938 35.820312 16.710938 34.527344 C 16.710938 34.164062 16.628906 33.820312 16.480469 33.515625 L 19.332031 30.664062 C 19.644531 30.820312 19.996094 30.90625 20.371094 30.90625 C 20.789062 30.90625 21.183594 30.792969 21.527344 30.601562 L 24.429688 33.503906 C 24.28125 33.8125 24.199219 34.15625 24.199219 34.523438 C 24.199219 35.816406 25.25 36.867188 26.542969 36.867188 C 27.835938 36.867188 28.886719 35.816406 28.886719 34.523438 C 28.886719 34.167969 28.804688 33.828125 28.664062 33.527344 L 33.121094 29.066406 C 33.449219 29.242188 33.824219 29.34375 34.222656 29.34375 C 35.515625 29.34375 36.566406 28.292969 36.566406 27 C 36.566406 25.707031 35.515625 24.65625 34.222656 24.65625 Z M 14.367188 35.308594 C 13.9375 35.308594 13.585938 34.957031 13.585938 34.527344 C 13.585938 34.09375 13.9375 33.746094 14.367188 33.746094 C 14.578125 33.746094 14.765625 33.828125 14.90625 33.964844 C 14.910156 33.96875 14.914062 33.96875 14.917969 33.972656 C 14.921875 33.976562 14.925781 33.980469 14.929688 33.984375 C 15.066406 34.125 15.148438 34.316406 15.148438 34.527344 C 15.148438 34.957031 14.796875 35.308594 14.367188 35.308594 Z M 20.371094 29.34375 C 19.9375 29.34375 19.589844 28.992188 19.589844 28.5625 C 19.589844 28.132812 19.9375 27.78125 20.371094 27.78125 C 20.800781 27.78125 21.152344 28.132812 21.152344 28.5625 C 21.152344 28.992188 20.800781 29.34375 20.371094 29.34375 Z M 26.542969 35.304688 C 26.109375 35.304688 25.761719 34.953125 25.761719 34.523438 C 25.761719 34.09375 26.109375 33.742188 26.542969 33.742188 C 26.972656 33.742188 27.324219 34.09375 27.324219 34.523438 C 27.324219 34.953125 26.972656 35.304688 26.542969 35.304688 Z M 34.222656 27.78125 C 33.792969 27.78125 33.441406 27.429688 33.441406 27 C 33.441406 26.570312 33.792969 26.21875 34.222656 26.21875 C 34.65625 26.21875 35.003906 26.570312 35.003906 27 C 35.003906 27.429688 34.65625 27.78125 34.222656 27.78125 Z M 34.222656 27.78125 "/>
<path style=" stroke:none;fill-rule:nonzero;fill:#AD0000;fill-opacity:1;" d="M 30.320312 18.359375 L 26.195312 18.359375 C 25.765625 18.359375 25.414062 18.710938 25.414062 19.140625 C 25.414062 19.570312 25.765625 19.921875 26.195312 19.921875 L 30.320312 19.921875 C 30.75 19.921875 31.101562 19.570312 31.101562 19.140625 C 31.101562 18.710938 30.75 18.359375 30.320312 18.359375 Z M 30.320312 18.359375 "/>
<path style=" stroke:none;fill-rule:nonzero;fill:#AD0000;fill-opacity:1;" d="M 34.429688 18.589844 C 34.285156 18.441406 34.082031 18.359375 33.875 18.359375 C 33.671875 18.359375 33.46875 18.441406 33.324219 18.589844 C 33.179688 18.734375 33.09375 18.933594 33.09375 19.140625 C 33.09375 19.347656 33.179688 19.546875 33.324219 19.691406 C 33.46875 19.839844 33.671875 19.921875 33.875 19.921875 C 34.082031 19.921875 34.285156 19.839844 34.429688 19.691406 C 34.574219 19.546875 34.65625 19.347656 34.65625 19.140625 C 34.65625 18.933594 34.574219 18.734375 34.429688 18.589844 Z M 34.429688 18.589844 "/>
<path style=" stroke:none;fill-rule:nonzero;fill:#AD0000;fill-opacity:1;" d="M 35.738281 10.859375 L 26.195312 10.859375 C 25.765625 10.859375 25.414062 11.210938 25.414062 11.640625 C 25.414062 12.070312 25.765625 12.421875 26.195312 12.421875 L 35.738281 12.421875 C 36.171875 12.421875 36.519531 12.070312 36.519531 11.640625 C 36.519531 11.210938 36.171875 10.859375 35.738281 10.859375 Z M 35.738281 10.859375 "/>
<path style=" stroke:none;fill-rule:nonzero;fill:#AD0000;fill-opacity:1;" d="M 35.738281 14.609375 L 26.195312 14.609375 C 25.765625 14.609375 25.414062 14.960938 25.414062 15.390625 C 25.414062 15.820312 25.765625 16.171875 26.195312 16.171875 L 35.738281 16.171875 C 36.171875 16.171875 36.519531 15.820312 36.519531 15.390625 C 36.519531 14.960938 36.171875 14.609375 35.738281 14.609375 Z M 35.738281 14.609375 "/>
</g>
</svg>
