<svg width="72" height="72" viewBox="0 0 72 72" fill="none" xmlns="http://www.w3.org/2000/svg">
<path d="M40.3144 7.92562C40.1006 7.92 39.8869 7.92562 39.6788 7.95375C39.1106 8.01562 38.5481 8.19 38.0194 8.47687L37.4738 8.775C36.5513 9.28687 35.4431 9.28687 34.5206 8.775L33.975 8.4825C31.8656 7.31812 29.1994 8.0325 27.9506 10.0912L27.63 10.6256C27.0844 11.5256 26.1225 12.0825 25.0706 12.105L24.4463 12.1162C22.0388 12.1669 20.0869 14.1244 20.0363 16.5319L20.025 17.1506C20.0025 18.2025 19.4456 19.17 18.5456 19.71L18.0113 20.0362C15.9525 21.2794 15.2381 23.9512 16.3969 26.0606L16.695 26.6062C17.2069 27.5231 17.2069 28.6369 16.695 29.5594L16.3969 30.105C15.2381 32.2144 15.9525 34.8806 18.0113 36.1294L18.5456 36.45C19.4456 36.9956 20.0025 37.9575 20.025 39.0094L20.0363 39.6338C20.07 41.085 20.7956 42.3675 21.8925 43.1719L15.885 58.7813C15.795 59.0288 15.84 59.3044 16.0088 59.5069C16.1832 59.7094 16.4475 59.7994 16.7063 59.7431L23.0794 58.4044L26.7638 63.765C26.9156 63.99 27.18 64.1081 27.4444 64.0744C27.7088 64.0463 27.9338 63.8663 28.035 63.6188L34.2113 47.5538L34.5263 47.385C35.4431 46.8731 36.5569 46.8731 37.4794 47.385L37.7888 47.5538L43.965 63.6188C44.0663 63.8663 44.2913 64.0463 44.5556 64.0744C44.82 64.1081 45.0844 63.99 45.2363 63.765L48.9206 58.4044L55.2938 59.7431C55.5525 59.7994 55.8169 59.7094 55.9913 59.5069C56.16 59.3044 56.205 59.0288 56.115 58.7813L50.1075 43.1719C51.21 42.3675 51.9356 41.085 51.9638 39.6338L51.975 39.0094C51.9975 37.9575 52.5544 36.9956 53.4544 36.45L53.9888 36.1294C56.0475 34.8806 56.7619 32.2144 55.6031 30.105V30.0994L55.2994 29.5537C54.7931 28.6369 54.7931 27.5231 55.2994 26.6062L55.5975 26.0606C56.7563 23.9512 56.0475 21.2794 53.9831 20.0306L53.4544 19.71C52.5544 19.1644 51.9975 18.2025 51.975 17.1506L51.9581 16.5262C51.9075 14.1187 49.9556 12.1669 47.5481 12.1162L46.9238 12.105C45.8775 12.0825 44.91 11.5256 44.37 10.6256L44.0438 10.0912C43.2281 8.74125 41.7938 7.965 40.3144 7.92562ZM31.7194 9.36C31.8656 9.35437 32.0063 9.36 32.1525 9.37687C32.5406 9.42187 32.9231 9.54 33.2831 9.7425L33.8231 10.0406C35.1731 10.7831 36.8156 10.7831 38.1713 10.0406L38.7113 9.7425C40.1569 8.94375 41.9569 9.4275 42.8119 10.8394L43.1325 11.3737C43.9313 12.69 45.3544 13.5112 46.8956 13.545L47.52 13.5562C49.1681 13.59 50.49 14.9062 50.5238 16.56L50.535 17.1787C50.5688 18.72 51.39 20.1431 52.7063 20.9419L53.235 21.2625H53.2406C54.6525 22.1175 55.1306 23.9175 54.3375 25.3631L54.0394 25.9087C53.2913 27.2587 53.2913 28.9012 54.0394 30.2512V30.2569L54.3431 30.8025C55.1363 32.2481 54.6525 34.0425 53.2406 34.8975L52.7119 35.2181C51.39 36.0169 50.5688 37.4344 50.535 38.9813L50.5238 39.6C50.5013 40.7081 49.8994 41.6531 49.0163 42.1706C48.915 42.1988 48.825 42.2494 48.7463 42.3169C48.375 42.4912 47.9644 42.5925 47.52 42.6038L46.9013 42.615C45.36 42.6488 43.9369 43.47 43.1381 44.7863L42.8175 45.3206C41.9625 46.7381 40.1625 47.2163 38.7169 46.4175L38.1713 46.1194C36.8213 45.3769 35.1788 45.3769 33.8288 46.1194L33.2831 46.4175C31.8375 47.2163 30.0375 46.7325 29.1825 45.3206L28.8619 44.7919C28.0631 43.47 26.6456 42.6488 25.0988 42.615L24.48 42.6038C24.0356 42.5925 23.625 42.4856 23.2482 42.3113C23.175 42.2494 23.0907 42.2044 23.0007 42.1763C22.1063 41.6531 21.4988 40.7081 21.4763 39.6L21.465 38.9813C21.4313 37.44 20.61 36.0169 19.2938 35.2181L18.7594 34.8975C17.3475 34.0425 16.8638 32.2425 17.6625 30.7969L17.9606 30.2512C18.7031 28.9012 18.7031 27.2587 17.9606 25.9087L17.6625 25.3687C16.8638 23.9175 17.3475 22.1231 18.7594 21.2625L19.2881 20.9419H19.2938C20.61 20.1431 21.4313 18.7256 21.465 17.1844V17.1787L21.4763 16.56C21.51 14.9062 22.8263 13.59 24.48 13.5562L25.0988 13.545C26.64 13.5112 28.0631 12.69 28.8619 11.3737L29.1825 10.8394C29.745 9.91125 30.7125 9.38812 31.7194 9.36ZM36 12.96C27.6525 12.96 20.88 19.7325 20.88 28.08C20.88 36.4275 27.6525 43.2 36 43.2C44.2238 43.2 50.9063 36.6244 51.1031 28.4512C51.1088 28.2488 50.9513 28.0856 50.7488 28.08C50.5519 28.0744 50.3888 28.2319 50.3831 28.4287C50.1919 36.225 43.8356 42.48 36 42.48C28.0406 42.48 21.6 36.0394 21.6 28.08C21.6 20.1206 28.0406 13.68 36 13.68C38.4131 13.68 40.6744 14.2762 42.6713 15.3225C42.7894 15.39 42.93 15.39 43.0425 15.3169C43.155 15.2494 43.2169 15.1256 43.2113 14.9962C43.2056 14.8612 43.1269 14.7431 43.0088 14.6869C40.9106 13.59 38.5313 12.96 36 12.96ZM44.7075 15.84C44.5556 15.8456 44.4263 15.9469 44.3813 16.0931C44.3419 16.245 44.3925 16.4025 44.5163 16.4925C45.6075 17.2912 46.575 18.2306 47.3963 19.2994C47.475 19.4006 47.5988 19.4569 47.7281 19.44C47.8575 19.4231 47.9644 19.3387 48.015 19.2206C48.0656 19.0969 48.0431 18.9619 47.9644 18.8606C47.1038 17.7412 46.0856 16.7512 44.9438 15.9075C44.8763 15.8569 44.7975 15.8344 44.7075 15.84ZM49.0725 20.8744C48.9431 20.8744 48.825 20.9419 48.7631 21.0544C48.6956 21.1612 48.6956 21.2962 48.7575 21.4087C49.1063 22.0781 49.4044 22.7812 49.6463 23.5125C49.6856 23.6419 49.7869 23.7431 49.9163 23.7712C50.0456 23.7994 50.1806 23.7544 50.2706 23.6531C50.355 23.5519 50.3775 23.4112 50.3325 23.2875C50.0738 22.5225 49.7644 21.78 49.3931 21.0712C49.3313 20.9531 49.2075 20.8744 49.0725 20.8744ZM44.1788 22.3256C43.7175 22.3537 43.2675 22.5506 42.9413 22.9219C42.9356 22.9219 42.9356 22.9219 42.9413 22.9219L35.325 31.4437L31.2638 26.5669C30.6281 25.8075 29.4863 25.7062 28.7269 26.3362C27.9675 26.9719 27.8663 28.1137 28.4963 28.8731L33.8963 35.3531C34.2338 35.7581 34.7231 35.9888 35.2463 36C35.2519 36 35.2519 36 35.2575 36H35.28C35.7919 36 36.2813 35.7806 36.6244 35.3981L45.6244 25.3181C46.2825 24.5812 46.215 23.4337 45.4781 22.7756C45.1125 22.4494 44.64 22.2975 44.1788 22.3256ZM44.2181 23.04C44.4938 23.0231 44.775 23.1131 45 23.3156C45.45 23.715 45.4838 24.39 45.0844 24.84L36.0844 34.92C35.8819 35.1506 35.5894 35.28 35.28 35.28H35.2631C34.9481 35.2744 34.65 35.1338 34.4475 34.8919L29.0475 28.4119C28.665 27.9506 28.7269 27.2756 29.1881 26.8875C29.6494 26.505 30.3244 26.5669 30.7125 27.0281L35.0438 32.2256C35.1056 32.31 35.2069 32.355 35.3138 32.355C35.415 32.3606 35.5163 32.3156 35.5838 32.2369L43.4756 23.4C43.6781 23.175 43.9425 23.0569 44.2181 23.04ZM23.1807 43.83C23.58 43.9594 24.0075 44.0325 24.4463 44.0438L25.0706 44.055C26.1225 44.0775 27.0844 44.6344 27.63 45.5344L27.9506 46.0688C28.4906 46.9575 29.295 47.5931 30.2063 47.9363L29.4469 49.9106C29.3738 50.0963 29.4694 50.3044 29.655 50.3775C29.8406 50.445 30.0488 50.355 30.1163 50.1694L30.8981 48.1388C31.3988 48.24 31.9106 48.2569 32.4225 48.1894L27.18 61.8244L23.9963 57.195C23.8275 56.9531 23.535 56.835 23.2538 56.8969L17.7075 58.0613L23.1807 43.83ZM48.8194 43.83L54.2925 58.0613L48.7463 56.8969C48.465 56.835 48.1725 56.9531 48.0038 57.195L44.82 61.8244L39.5775 48.195C41.31 48.4256 43.0931 47.6438 44.0494 46.0688L44.37 45.5344C44.9156 44.6344 45.8831 44.0775 46.9294 44.055L47.5538 44.0438C47.9925 44.0325 48.42 43.9594 48.8194 43.83ZM47.6213 45.3544C47.61 45.3544 47.5988 45.3544 47.5875 45.3544C47.4694 45.3656 47.3681 45.4275 47.3063 45.5231C47.25 45.6244 47.2388 45.7425 47.2838 45.8494L48.9431 50.1694C49.0163 50.355 49.2244 50.445 49.41 50.3775C49.5956 50.3044 49.6856 50.0963 49.6125 49.9106L47.9531 45.5906C47.9025 45.45 47.7731 45.36 47.6213 45.3544ZM29.2163 51.1144C29.07 51.12 28.9406 51.2156 28.89 51.3506L28.0631 53.5106C27.99 53.6963 28.0857 53.9044 28.2713 53.9775C28.4569 54.045 28.665 53.955 28.7325 53.7694L29.565 51.6094C29.61 51.4969 29.5931 51.3675 29.5256 51.2663C29.4525 51.165 29.3344 51.1088 29.2163 51.1144ZM50.1131 51.8344C50.1019 51.8344 50.0906 51.8344 50.0794 51.8344C49.9613 51.8456 49.86 51.9075 49.7981 52.0031C49.7419 52.1044 49.7306 52.2225 49.77 52.3294L50.8838 55.2094C50.9513 55.395 51.1594 55.485 51.345 55.4175C51.5306 55.3444 51.6263 55.1363 51.5531 54.9506L50.445 52.0706C50.3944 51.93 50.265 51.84 50.1131 51.8344ZM27.5513 55.4344C27.4107 55.44 27.2813 55.5356 27.2306 55.6706L26.6794 57.1106C26.6063 57.2963 26.7019 57.5044 26.8819 57.5775C27.0675 57.645 27.2813 57.555 27.3488 57.3694L27.9056 55.9294C27.9506 55.8169 27.9338 55.6875 27.8606 55.5863C27.7931 55.485 27.675 55.4288 27.5513 55.4344Z" fill="#AD0000"/>
</svg>
