<svg width="72" height="72" viewBox="0 0 72 72" fill="none" xmlns="http://www.w3.org/2000/svg">
<path d="M29.5199 9.36C23.6024 9.36 18.2305 11.2163 14.3155 14.2538C10.3949 17.2969 7.91992 21.555 7.91992 26.28C7.91992 31.0162 10.4399 35.2575 14.3774 38.295C14.3718 38.5256 14.3774 39.5944 14.1355 41.22C13.8768 43.0031 13.3199 45.1181 12.3862 46.3669C12.2174 46.5862 12.1949 46.8788 12.313 47.1206C12.4368 47.3681 12.6899 47.52 12.9599 47.52C16.6218 47.52 19.4062 46.17 21.3187 44.7581C23.3212 52.5825 32.0905 58.32 42.4799 58.32C44.4993 58.32 46.4399 58.0837 48.2905 57.6787C49.7137 59.3381 53.3137 62.64 59.0399 62.64C59.3099 62.64 59.563 62.4881 59.6868 62.2406C59.8049 61.9987 59.7824 61.7062 59.6137 61.4869C58.6799 60.2381 58.123 58.1231 57.8643 56.34C57.6224 54.7144 57.628 53.6456 57.6224 53.415C61.5599 50.3775 64.0799 46.1362 64.0799 41.4C64.0799 34.4025 58.6743 28.4794 51.1087 25.8975C50.9793 21.3244 48.538 17.2125 44.7243 14.2538C40.8093 11.2163 35.4374 9.36 29.5199 9.36ZM29.5199 10.8C35.1337 10.8 40.2018 12.5719 43.8412 15.3956C47.4805 18.2138 49.6743 22.05 49.6799 26.2687C49.663 26.3475 49.663 26.4206 49.6743 26.4994C49.5955 30.6338 47.4187 34.3912 43.8412 37.1644C40.2018 39.9881 35.1337 41.76 29.5199 41.76C27.4668 41.76 25.4868 41.5237 23.6193 41.085C23.3493 41.0175 23.0624 41.1187 22.888 41.3325C21.9374 42.525 18.883 45.405 14.1862 45.8944C14.8837 44.46 15.3505 42.8681 15.5643 41.4281C15.8399 39.5325 15.8399 38.0025 15.8399 38.0025C15.8399 37.7775 15.733 37.5637 15.5474 37.4287C11.7055 34.5825 9.35992 30.6338 9.35992 26.28C9.35992 22.0556 11.5593 18.2194 15.1987 15.3956C18.838 12.5719 23.9062 10.8 29.5199 10.8ZM29.5199 12.96C24.5868 12.96 20.1037 14.4338 16.8412 16.83C13.573 19.2262 11.5199 22.5731 11.5199 26.28C11.5199 28.6088 12.3355 30.8081 13.753 32.7037C13.8712 32.8612 14.0962 32.895 14.2537 32.7769C14.4168 32.6587 14.4449 32.4338 14.3268 32.2706C12.9937 30.4819 12.2399 28.4456 12.2399 26.28C12.2399 22.8375 14.1412 19.7044 17.2687 17.4094C20.3905 15.1144 24.7274 13.68 29.5199 13.68C33.3674 13.68 36.9224 14.6025 39.7912 16.155C39.9037 16.2225 40.0443 16.2225 40.1512 16.155C40.2637 16.0875 40.3312 15.9638 40.3255 15.8344C40.3255 15.705 40.2468 15.5869 40.1287 15.525C37.1474 13.9106 33.4799 12.96 29.5199 12.96ZM41.3999 16.3462C41.2368 16.3462 41.0962 16.4475 41.0512 16.605C41.0062 16.7569 41.0624 16.92 41.1974 17.01C41.4393 17.1675 41.6755 17.3362 41.9062 17.5106C42.0637 17.6288 42.2887 17.6006 42.4068 17.4375C42.5305 17.28 42.4968 17.055 42.3337 16.9312C42.0974 16.7569 41.8555 16.5769 41.6024 16.4081C41.5405 16.3688 41.4674 16.3462 41.3999 16.3462ZM43.5487 18.0788C43.4024 18.0844 43.273 18.1744 43.2224 18.3094C43.1662 18.45 43.1999 18.6019 43.3124 18.7031C43.8299 19.2038 44.2968 19.7325 44.713 20.2894C44.8312 20.4469 45.0562 20.4806 45.2137 20.3625C45.3768 20.2388 45.4049 20.0138 45.2868 19.8562C44.8537 19.2712 44.3587 18.7144 43.8074 18.1856C43.7399 18.1181 43.6499 18.0788 43.5487 18.0788ZM19.7999 20.88C19.6705 20.88 19.5468 20.9475 19.4849 21.06C19.4174 21.1725 19.4174 21.3075 19.4849 21.42C19.5468 21.5325 19.6705 21.6 19.7999 21.6H30.5999C30.7293 21.6 30.853 21.5325 30.9149 21.42C30.9824 21.3075 30.9824 21.1725 30.9149 21.06C30.853 20.9475 30.7293 20.88 30.5999 20.88H19.7999ZM32.7599 20.88C32.6305 20.88 32.5068 20.9475 32.4449 21.06C32.3774 21.1725 32.3774 21.3075 32.4449 21.42C32.5068 21.5325 32.6305 21.6 32.7599 21.6H39.2399C39.3693 21.6 39.493 21.5325 39.5549 21.42C39.6224 21.3075 39.6224 21.1725 39.5549 21.06C39.493 20.9475 39.3693 20.88 39.2399 20.88H32.7599ZM46.4399 22.2581C46.3162 22.2581 46.2037 22.32 46.1362 22.4156C46.0743 22.5169 46.0574 22.6462 46.1024 22.7588C46.558 23.8781 46.7999 25.0594 46.7999 26.28C46.7999 29.7225 44.8987 32.8556 41.7712 35.1506C38.6493 37.4456 34.3124 38.88 29.5199 38.88C28.9237 38.88 28.3274 38.8575 27.748 38.8125C27.5455 38.8012 27.3768 38.9475 27.3599 39.1444C27.3487 39.3469 27.4949 39.5156 27.6918 39.5325C28.2937 39.5775 28.9012 39.6 29.5199 39.6C34.453 39.6 38.9362 38.1262 42.1987 35.73C45.4668 33.3338 47.5199 29.9869 47.5199 26.28C47.5199 24.9638 47.2555 23.6869 46.7774 22.4888C46.7212 22.3481 46.5862 22.2581 46.4399 22.2581ZM18.3599 24.48C18.2305 24.48 18.1068 24.5475 18.0449 24.66C17.9774 24.7725 17.9774 24.9075 18.0449 25.02C18.1068 25.1325 18.2305 25.2 18.3599 25.2H22.6799C22.8093 25.2 22.933 25.1325 22.9949 25.02C23.0624 24.9075 23.0624 24.7725 22.9949 24.66C22.933 24.5475 22.8093 24.48 22.6799 24.48H18.3599ZM25.5599 24.48C25.4305 24.48 25.3068 24.5475 25.2449 24.66C25.1774 24.7725 25.1774 24.9075 25.2449 25.02C25.3068 25.1325 25.4305 25.2 25.5599 25.2H40.6799C40.8093 25.2 40.933 25.1325 40.9949 25.02C41.0624 24.9075 41.0624 24.7725 40.9949 24.66C40.933 24.5475 40.8093 24.48 40.6799 24.48H25.5599ZM51.0693 27.405C57.9599 29.9081 62.6399 35.2688 62.6399 41.4C62.6399 45.7537 60.2943 49.7025 56.4524 52.5487C56.2668 52.6837 56.1599 52.8975 56.1599 53.1225C56.1599 53.1225 56.1599 54.6525 56.4355 56.5481C56.6493 57.9881 57.1162 59.58 57.8137 61.0144C53.1168 60.525 50.0624 57.645 49.1118 56.4525C48.9374 56.2387 48.6505 56.1375 48.3805 56.205C46.513 56.6437 44.533 56.88 42.4799 56.88C32.3043 56.88 24.0074 51.0694 22.5562 43.7287C23.023 43.3012 23.4224 42.8906 23.7093 42.5587C25.5599 42.9637 27.5005 43.2 29.5199 43.2C35.4374 43.2 40.8093 41.3438 44.7243 38.3062C48.3299 35.505 50.7093 31.68 51.0693 27.405ZM18.3599 28.08C18.2305 28.08 18.1068 28.1475 18.0449 28.26C17.9774 28.3725 17.9774 28.5075 18.0449 28.62C18.1068 28.7325 18.2305 28.8 18.3599 28.8H40.6799C40.8093 28.8 40.933 28.7325 40.9949 28.62C41.0624 28.5075 41.0624 28.3725 40.9949 28.26C40.933 28.1475 40.8093 28.08 40.6799 28.08H18.3599ZM52.9199 30.6169C52.7512 30.6169 52.6049 30.7294 52.5655 30.8869C52.5262 31.05 52.5993 31.2188 52.7512 31.2975C57.0205 33.6094 59.7599 37.2825 59.7599 41.4C59.7599 43.5656 59.0062 45.6019 57.673 47.3906C57.5549 47.5538 57.583 47.7787 57.7462 47.8969C57.9037 48.015 58.1287 47.9812 58.2468 47.8237C59.6643 45.9281 60.4799 43.7287 60.4799 41.4C60.4799 36.9675 57.5324 33.0694 53.0887 30.6619C53.038 30.6338 52.9818 30.6169 52.9199 30.6169ZM19.7999 31.68C19.6705 31.68 19.5468 31.7475 19.4849 31.86C19.4174 31.9725 19.4174 32.1075 19.4849 32.22C19.5468 32.3325 19.6705 32.4 19.7999 32.4H29.8799C30.0093 32.4 30.133 32.3325 30.1949 32.22C30.2624 32.1075 30.2624 31.9725 30.1949 31.86C30.133 31.7475 30.0093 31.68 29.8799 31.68H19.7999ZM49.3199 36C49.1905 36 49.0668 36.0675 49.0049 36.18C48.9374 36.2925 48.9374 36.4275 49.0049 36.54C49.0668 36.6525 49.1905 36.72 49.3199 36.72H52.1999C52.3293 36.72 52.453 36.6525 52.5149 36.54C52.5824 36.4275 52.5824 36.2925 52.5149 36.18C52.453 36.0675 52.3293 36 52.1999 36H49.3199ZM45.7199 39.6C45.5905 39.6 45.4668 39.6675 45.4049 39.78C45.3374 39.8925 45.3374 40.0275 45.4049 40.14C45.4668 40.2525 45.5905 40.32 45.7199 40.32H53.6399C53.7693 40.32 53.893 40.2525 53.9549 40.14C54.0224 40.0275 54.0224 39.8925 53.9549 39.78C53.893 39.6675 53.7693 39.6 53.6399 39.6H45.7199ZM39.2399 43.2C39.1105 43.2 38.9868 43.2675 38.9249 43.38C38.8574 43.4925 38.8574 43.6275 38.9249 43.74C38.9868 43.8525 39.1105 43.92 39.2399 43.92H53.6399C53.7693 43.92 53.893 43.8525 53.9549 43.74C54.0224 43.6275 54.0224 43.4925 53.9549 43.38C53.893 43.2675 53.7693 43.2 53.6399 43.2H39.2399ZM25.5374 44.6344C25.4193 44.6344 25.3068 44.6962 25.2393 44.7919C25.1718 44.8931 25.1549 45.0225 25.1999 45.135C27.4049 50.7206 34.3349 54.72 42.4799 54.72C43.0987 54.72 43.7062 54.6975 44.308 54.6525C44.5049 54.6356 44.6512 54.4669 44.6399 54.2644C44.623 54.0675 44.4543 53.9212 44.2518 53.9325C43.6724 53.9775 43.0762 54 42.4799 54C34.5712 54 27.928 50.0794 25.8749 44.865C25.8187 44.73 25.6893 44.6344 25.5374 44.6344ZM32.7599 46.8C32.6305 46.8 32.5068 46.8675 32.4449 46.98C32.3774 47.0925 32.3774 47.2275 32.4449 47.34C32.5068 47.4525 32.6305 47.52 32.7599 47.52H52.1999C52.3293 47.52 52.453 47.4525 52.5149 47.34C52.5824 47.2275 52.5824 47.0925 52.5149 46.98C52.453 46.8675 52.3293 46.8 52.1999 46.8H32.7599Z" fill="#AD0000"/>
</svg>
