<svg width="72" height="72" viewBox="0 0 72 72" fill="none" xmlns="http://www.w3.org/2000/svg">
<path d="M44.4711 12.2456C43.5542 12.2906 42.6486 12.6844 41.9792 13.4156L41.7486 13.6687C41.0624 13.1569 40.2355 12.9262 39.4255 12.9656C38.503 13.0106 37.603 13.4044 36.9336 14.1412L28.7549 23.1581C28.6649 23.2537 28.6311 23.3887 28.6705 23.5125C28.7099 23.6419 28.8167 23.7319 28.9405 23.76C29.0699 23.7881 29.2049 23.7431 29.2892 23.6419L37.468 14.625C38.458 13.5337 40.078 13.3875 41.2536 14.22L31.2636 25.2H24.4686C23.1524 25.2 21.8867 25.7625 21.0036 26.7356L9.03924 39.9262C7.62737 41.4787 7.58799 43.8637 8.94362 45.3487C9.66924 46.1419 10.693 46.6087 11.773 46.6537C11.3624 47.1262 11.0361 47.6606 10.8111 48.24L7.94237 55.6706C7.89174 55.8112 7.92549 55.9687 8.03799 56.0644C8.14487 56.1656 8.30799 56.1881 8.43737 56.1262L15.5867 52.5937C16.1942 52.2956 16.7399 51.885 17.1955 51.3787C17.2011 51.3787 17.2011 51.3731 17.2067 51.3731L17.2967 51.2662C17.2911 51.3337 17.2799 51.4069 17.2799 51.48C17.2799 53.6625 19.0574 55.44 21.2399 55.44C21.9092 55.44 22.5392 55.2712 23.0961 54.9731C23.3886 56.8631 25.0311 58.32 26.9999 58.32C28.0799 58.32 29.0586 57.8812 29.773 57.1781C30.3355 58.68 31.7867 59.76 33.4799 59.76C35.2855 59.76 36.8099 58.5394 37.2824 56.88H63.3599C63.6186 56.8856 63.8605 56.745 63.9899 56.5256C64.1249 56.3006 64.1249 56.0194 63.9899 55.7944C63.8605 55.575 63.6186 55.4344 63.3599 55.44H36.3317L30.8586 53.775C30.7911 53.7412 30.718 53.7187 30.6392 53.7075L30.5605 53.685C30.4874 53.6512 30.403 53.6231 30.3242 53.6175L19.3892 50.2931L19.3836 50.2875C19.0967 50.2087 18.8436 50.0906 18.6186 49.95C18.5792 49.9162 18.5342 49.8881 18.4949 49.86C17.533 49.1794 17.0492 47.9475 17.3924 46.7437V46.7381C17.7411 45.4612 18.9055 44.64 20.1599 44.64C20.1092 44.64 20.3792 44.6512 20.6999 44.6681C21.0261 44.6906 21.4649 44.7187 21.988 44.7525C23.0286 44.82 24.3899 44.91 25.7624 45C27.1292 45.09 28.5074 45.18 29.5874 45.2475C30.673 45.315 31.3817 45.36 31.6799 45.36C33.6261 45.36 35.3924 44.7806 36.7086 43.7737C38.0249 42.7612 38.8799 41.2819 38.8799 39.6C38.8799 37.5806 37.2486 35.6062 35.848 34.0762C35.7017 33.9075 35.488 33.8231 35.2686 33.8344C34.9874 33.8456 34.7455 34.0256 34.6386 34.2844C34.5374 34.5431 34.5936 34.8412 34.7849 35.0437C36.1067 36.495 37.4399 38.4919 37.4399 39.6C37.4399 40.7981 36.8549 41.8387 35.8311 42.6262C34.8074 43.4194 33.3336 43.92 31.6799 43.92C31.618 43.92 30.7574 43.875 29.6774 43.8075C28.603 43.74 27.2249 43.65 25.8524 43.56C25.3067 43.5262 24.868 43.4981 24.3449 43.4644L31.6067 35.4937C31.6574 35.4544 31.7024 35.4094 31.7305 35.3531L33.2886 33.6431C33.328 33.615 33.3617 33.5756 33.3899 33.5362L39.5549 26.7637C41.0511 27.0225 42.4517 27.7031 43.5824 28.7494L55.6536 39.9375C55.9236 40.185 56.2667 40.32 56.6324 40.32H63.3599C63.7592 40.32 64.0799 39.9994 64.0799 39.6C64.0799 39.2006 63.7592 38.88 63.3599 38.88H56.6324L44.5667 27.6975C43.4474 26.6569 42.1086 25.9369 40.6686 25.5431L47.3005 18.2644C48.6392 16.7962 48.5324 14.5125 47.0642 13.1794C46.333 12.51 45.3936 12.2006 44.4711 12.2456ZM44.5049 12.96C45.2417 12.9262 45.9899 13.1737 46.5805 13.7137C47.7561 14.7825 47.8405 16.5994 46.7661 17.7806L33.0467 32.8387L28.7999 28.9856L42.0242 14.4337C42.0411 14.4169 42.058 14.4 42.0749 14.3831L42.5136 13.8994C43.048 13.3087 43.7736 12.9937 44.5049 12.96ZM24.4686 26.64H29.9586L28.1249 28.6594C28.0292 28.6987 27.9561 28.7775 27.9224 28.8787L26.4261 30.5269C26.3642 30.5606 26.3136 30.6169 26.2855 30.6787L13.7867 44.4319C13.3199 44.9325 12.6505 45.2194 11.9417 45.225H11.9361C11.1992 45.225 10.4961 44.9156 10.0067 44.3812C9.14612 43.4362 9.19112 41.9062 10.1024 40.8937L22.0724 27.7031C22.6799 27.0281 23.5574 26.64 24.4686 26.64ZM28.3161 29.52L32.563 33.3675L31.3761 34.6725L27.1349 30.8194L28.3161 29.52ZM26.6511 31.3537L30.8924 35.2012L23.4224 43.4025C22.9892 43.3744 22.4549 43.3406 22.0836 43.3125C21.5605 43.2787 21.1161 43.2506 20.7899 43.2337C20.4636 43.2112 20.3174 43.2 20.1599 43.2C18.2755 43.2 16.5317 44.4487 16.003 46.3556C15.5811 47.8631 16.0255 49.4044 17.0211 50.4675L16.6611 50.895C16.2674 51.3337 15.7949 51.6937 15.2661 51.9525L11.7111 53.7075L10.0574 52.2L11.4861 48.4987C11.6942 47.9644 11.998 47.4694 12.3861 47.0475L26.6511 31.3537ZM21.9542 46.0744C21.7574 46.08 21.5942 46.2431 21.5999 46.44C21.5999 48.0769 21.0936 49.1681 21.0936 49.1681C21.0317 49.2862 21.0374 49.4325 21.1105 49.545C21.1892 49.6519 21.3186 49.7137 21.448 49.6969C21.583 49.6856 21.6955 49.5956 21.7461 49.4719C21.7461 49.4719 22.3199 48.2231 22.3199 46.44C22.3199 46.3444 22.2861 46.2487 22.213 46.1812C22.1455 46.1081 22.0499 46.0744 21.9542 46.0744ZM30.5999 50.7037C30.4199 50.7037 30.268 50.8331 30.2399 51.0131C30.2117 51.1875 30.3242 51.3619 30.4986 51.4125L32.6586 52.065C32.7824 52.11 32.9174 52.0762 33.013 51.9919C33.1086 51.9019 33.148 51.7669 33.1199 51.6375C33.0861 51.5137 32.9905 51.4125 32.8611 51.3787L30.7011 50.7206C30.6674 50.7094 30.6336 50.7037 30.5999 50.7037ZM18.7311 51.5812C18.8155 51.6094 18.8999 51.6487 18.9899 51.6769L18.9786 51.6712L23.2592 52.9762C22.8092 53.595 22.078 54 21.2399 54C19.8674 54 18.7817 52.9369 18.7311 51.5812ZM34.9199 52.0144C34.7399 52.0144 34.588 52.1437 34.5599 52.3237C34.5317 52.5037 34.6442 52.6725 34.8186 52.7231L36.6017 53.2631C36.6355 53.2744 36.6692 53.28 36.7086 53.28H55.0799C55.2092 53.28 55.333 53.2125 55.3949 53.1C55.4624 52.9875 55.4624 52.8525 55.3949 52.74C55.333 52.6275 55.2092 52.56 55.0799 52.56H36.7592L35.0211 52.0312C34.9874 52.02 34.9536 52.0144 34.9199 52.0144ZM57.9599 52.56C57.8305 52.56 57.7067 52.6275 57.6449 52.74C57.5774 52.8525 57.5774 52.9875 57.6449 53.1C57.7067 53.2125 57.8305 53.28 57.9599 53.28H61.5599C61.6892 53.28 61.813 53.2125 61.8749 53.1C61.9424 52.9875 61.9424 52.8525 61.8749 52.74C61.813 52.6275 61.6892 52.56 61.5599 52.56H57.9599ZM24.6824 53.4037L29.4692 54.8606C29.2442 56.0194 28.2317 56.88 26.9999 56.88C25.5936 56.88 24.4799 55.7662 24.4799 54.36C24.4799 54.0619 24.5361 53.7694 24.6317 53.505C24.6542 53.4712 24.6599 53.4375 24.6824 53.4037ZM31.0105 55.3275L35.7917 56.7787C35.4092 57.6844 34.5317 58.32 33.4799 58.32C32.0736 58.32 30.9599 57.2062 30.9599 55.8C30.9599 55.6369 30.9824 55.4794 31.0105 55.3275Z" fill="#AD0000"/>
</svg>
