<svg width="72" height="72" viewBox="0 0 72 72" fill="none" xmlns="http://www.w3.org/2000/svg">
<path d="M35.2799 10.8C30.9149 10.8 27.3599 14.355 27.3599 18.72C27.3599 22.7756 30.9656 26.7694 34.4418 29.88C37.9124 32.985 41.3774 35.1675 41.3774 35.1675C41.6081 35.3194 41.9118 35.3194 42.1424 35.1675C42.1424 35.1675 45.6074 32.985 49.0781 29.88C52.5543 26.7694 56.1599 22.7756 56.1599 18.72C56.1599 14.355 52.6049 10.8 48.2399 10.8C45.5231 10.8 43.1831 12.2175 41.7599 14.31C40.3368 12.2175 37.9968 10.8 35.2799 10.8ZM35.2799 12.24C37.8562 12.24 40.0612 13.7419 41.1131 15.9075C41.2312 16.1606 41.4843 16.3181 41.7599 16.3181C42.0356 16.3181 42.2887 16.1606 42.4068 15.9075C43.4587 13.7419 45.6637 12.24 48.2399 12.24C51.8287 12.24 54.7199 15.1313 54.7199 18.72C54.7199 21.8644 51.4856 25.7906 48.1218 28.8C45.0618 31.5394 42.2943 33.345 41.7599 33.6881C41.2256 33.345 38.4581 31.5394 35.3981 28.8C32.0343 25.7906 28.7999 21.8644 28.7999 18.72C28.7999 15.1313 31.6912 12.24 35.2799 12.24ZM50.9287 16.5544C50.7937 16.5544 50.6699 16.6331 50.6081 16.7513C50.5462 16.8694 50.5574 17.01 50.6306 17.1225C50.9399 17.5781 51.1199 18.1294 51.1199 18.72C51.1199 19.17 50.9568 19.7325 50.6418 20.3625C50.5799 20.475 50.5856 20.6156 50.6531 20.7281C50.7262 20.8406 50.8556 20.9025 50.9849 20.8913C51.1199 20.88 51.2324 20.8013 51.2887 20.6775C51.6318 19.9913 51.8399 19.3388 51.8399 18.72C51.8399 17.9831 51.6149 17.2913 51.2324 16.7175C51.1649 16.6163 51.0468 16.5544 50.9287 16.5544ZM49.5224 22.3144C49.4156 22.32 49.3143 22.3706 49.2524 22.455C47.7674 24.3113 45.5793 26.3531 43.3349 28.125C43.2281 28.2038 43.1774 28.3331 43.1943 28.4625C43.2112 28.5919 43.3012 28.7044 43.4193 28.7494C43.5431 28.8 43.6837 28.7775 43.7849 28.6875C46.0574 26.8931 48.2793 24.8344 49.8149 22.905C49.9049 22.7925 49.9218 22.6406 49.8599 22.5169C49.7981 22.3875 49.6631 22.3088 49.5224 22.3144ZM20.8631 34.5375C18.7424 34.5375 16.6668 34.9313 14.6924 35.7075L8.37557 38.205C8.00432 38.3513 7.82432 38.7675 7.97057 39.1388C8.11682 39.51 8.53307 39.69 8.90432 39.5438L15.2212 37.0519C17.0268 36.3375 18.9224 35.9775 20.8631 35.9775H20.8856C23.1243 35.9831 25.2787 36.4556 27.3093 37.395L27.4387 37.4569L40.7193 44.28C40.7812 44.3081 40.8374 44.3419 40.8881 44.37C40.9162 44.3925 40.9443 44.4094 40.9724 44.4263C42.3787 45.315 42.8849 47.1544 42.1199 48.6394C41.5631 49.7306 40.4606 50.4 39.2399 50.4C38.7168 50.4 38.2274 50.2819 37.7549 50.04H37.7493L31.4774 46.9519C31.2974 46.8619 31.0837 46.935 30.9937 47.115C30.9093 47.295 30.9824 47.5088 31.1624 47.5988L37.4287 50.6813C37.9968 50.9738 38.6043 51.12 39.2399 51.12C40.0331 51.12 40.7812 50.8781 41.4224 50.4563L43.7062 51.8288C43.8074 51.8906 43.9256 51.9019 44.0324 51.8513L58.4549 45.675C58.4606 45.6694 58.4662 45.6694 58.4718 45.6638C58.8037 45.5006 59.1693 45.4106 59.5631 45.3881C59.6699 45.405 59.7768 45.3994 59.8781 45.3713C60.8906 45.4106 61.8468 45.9788 62.3362 46.9519C63.0506 48.3806 62.4768 50.1019 61.0481 50.8163L43.7681 59.4563C43.3631 59.6588 42.9243 59.76 42.4799 59.76C42.0693 59.76 41.6643 59.6756 41.2818 59.5013L18.0224 48.8981L8.38119 52.605C8.00995 52.7513 7.82432 53.1675 7.96495 53.5388C8.11119 53.91 8.52745 54.0956 8.8987 53.955L17.9774 50.4619L40.6799 60.8063C41.2537 61.0706 41.8668 61.2 42.4799 61.2C43.1437 61.2 43.8074 61.0481 44.4149 60.7444L61.6949 52.1044C63.8212 51.0413 64.6874 48.4369 63.6243 46.305C62.9437 44.9494 61.6387 44.1056 60.2324 43.9481C60.1762 43.7738 60.1087 43.5994 60.0243 43.425C59.1806 41.7431 57.3806 40.9163 55.6087 41.1413C54.7818 39.6394 53.1899 38.79 51.5587 38.8913C51.0018 38.925 50.4393 39.0713 49.9049 39.3356L49.9443 39.3188L41.3718 42.9919L28.0856 36.1688L27.9224 36.09L27.9112 36.0844C25.6949 35.0606 23.3268 34.5431 20.8856 34.5375H20.8631ZM51.9974 40.3313C52.8018 40.3931 53.5556 40.8038 54.0731 41.4675L50.0343 42.6206H53.4262L43.1774 47.0138C43.1381 46.0013 42.7218 45.0225 41.9737 44.3025L50.5349 40.635L50.5518 40.6238C51.0243 40.3875 51.5193 40.2975 51.9974 40.3313ZM56.2274 42.5925C57.2568 42.5981 58.2412 43.0819 58.7362 44.0719C58.8374 44.2744 58.9049 44.4938 58.9556 44.7413C58.6743 44.8031 58.4043 44.8931 58.1512 45.0225L43.9199 51.12L42.0131 49.9781C42.3112 49.6856 42.5643 49.3538 42.7612 48.9713C42.9524 48.6 43.0593 48.2119 43.1268 47.8181L54.8606 42.7894L54.8718 42.7838C54.9956 42.7219 55.1418 42.6713 55.3049 42.6206H55.7887C55.9349 42.6038 56.0812 42.5925 56.2274 42.5925ZM28.4231 45.495C28.2599 45.5006 28.1193 45.6188 28.0856 45.7819C28.0518 45.945 28.1306 46.1081 28.2824 46.1813L29.7224 46.89C29.8349 46.9519 29.9812 46.9463 30.0881 46.8731C30.2006 46.8 30.2624 46.6763 30.2512 46.5413C30.2399 46.4119 30.1612 46.2938 30.0374 46.2431L28.5974 45.5344C28.5468 45.5063 28.4849 45.4894 28.4231 45.495Z" fill="white"/>
</svg>
